<svg xmlns="http://www.w3.org/2000/svg" viewBox="1200 200 3000 4200" width="512" height="512">
<g transform="translate(2700, 2300) rotate(180) translate(-2700, -2300)">
<path d="M2320 4324 c-101 -11 -97 -9 -141 -96 -22 -44 -114 -236 -204 -427
-155 -329 -291 -614 -702 -1471 -99 -206 -266 -555 -371 -775 -104 -220 -252
-528 -327 -685 -211 -438 -277 -582 -270 -589 4 -3 297 -7 652 -9 l646 -3 23
22 c13 13 24 26 24 31 0 10 87 195 521 1116 175 370 321 681 324 692 6 19 1
20 -205 20 l-210 0 -76 -157 c-41 -87 -140 -295 -220 -463 -79 -168 -204 -429
-277 -580 l-133 -275 -95 -3 c-52 -2 -150 0 -218 3 l-123 7 5 28 c8 36 741
1588 789 1670 12 19 28 41 36 47 12 10 119 13 456 13 243 0 446 -4 453 -8 7
-4 66 -119 132 -254 l119 -246 136 -7 c145 -8 286 0 286 17 0 12 -244 533
-383 818 l-32 65 -200 6 c-110 4 -323 7 -473 8 -312 1 -300 -3 -262 89 42 101
439 936 459 962 23 32 66 39 231 38 192 -1 173 11 260 -163 42 -82 150 -307
242 -500 91 -192 280 -588 418 -880 280 -588 343 -727 332 -737 -13 -12 -233
-17 -792 -18 l-556 0 -93 -187 -92 -188 43 -7 c55 -8 2114 -5 2123 3 3 4 -38
101 -93 215 -54 115 -264 558 -466 984 -835 1760 -869 1830 -898 1856 -19 18
-44 19 -392 20 -204 1 -387 0 -406 -2z" 
fill="#0055FF" 
stroke="#0055FF" 
stroke-width="80"
stroke-linejoin="round"
stroke-linecap="round"/>
<path d="M3410 946 c0 -6 236 -508 279 -593 l41 -83 660 0 c363 0 660 2 660 5
0 6 -193 412 -261 546 -32 64 -65 119 -74 123 -30 11 -405 7 -405 -5 0 -5 20
-56 45 -113 60 -138 61 -148 10 -158 -22 -4 -113 -5 -203 -1 -129 5 -167 9
-182 22 -11 9 -46 71 -80 139 l-60 122 -215 0 c-118 0 -215 -2 -215 -4z" 
fill="#0055FF" 
stroke="#0055FF" 
stroke-width="80"
stroke-linejoin="round"
stroke-linecap="round"/>
</g>
</svg>
